<?xml version="1.0" ?><!DOCTYPE svg  PUBLIC '-//W3C//DTD SVG 1.1//EN'  'http://www.w3.org/Graphics/SVG/1.1/DTD/svg11.dtd'><svg class="icon" height="200.00px" version="1.1" viewBox="0 0 1024 1024" width="200px" xmlns="http://www.w3.org/2000/svg"><path d="M384 384a16 16 0 0 1 16 16l-0.032 0.656L769.456 992h148.464l-14-160H720a16 16 0 1 1 0-32h32v-48a48 48 0 0 1 96 0v48h53.12l-10.304-118.032a15.936 15.936 0 0 1 2.432-9.968H624a16 16 0 1 1 0-32h304a16 16 0 0 1 0 32h-7.744a15.936 15.936 0 0 1 2.432 7.184L933.28 800H944a16 16 0 0 1 0 32h-7.936l13.984 160H1008a16 16 0 0 1 0 32H16a16 16 0 1 1 0-32h43.104a16.128 16.128 0 0 1 0.032-2.304L72.928 832H64a16 16 0 1 1 0-32h11.728l12.608-144H80a16 16 0 1 1 0-32h11.136l12.592-144H96a16 16 0 1 1 0-32h10.528l4.208-48.048a15.92 15.92 0 0 1 3.856-9.104l1.376-1.392A15.968 15.968 0 0 1 128 384h256z m27.808 96H135.84l-12.592 144H176v-48a48 48 0 0 1 96 0v48h48v-48a48 48 0 0 1 96 0v48h48a16 16 0 0 1 0 32H120.448l-12.592 144H160v-48a48 48 0 0 1 96 0v48h48v-48a48 48 0 0 1 96 0v48h48v-48a48 48 0 0 1 96 0v48h16a16 16 0 0 1 0 32H105.056l-14 160h640.688L411.808 480zM192 880a48 48 0 0 1 48 48v32a16 16 0 1 1-32 0v-32a16 16 0 0 0-32 0v32a16 16 0 1 1-32 0v-32a48 48 0 0 1 48-48z m144 0a48 48 0 0 1 48 48v32a16 16 0 1 1-32 0v-32a16 16 0 0 0-32 0v32a16 16 0 1 1-32 0v-32a48 48 0 0 1 48-48z m144 0a48 48 0 0 1 48 48v32a16 16 0 1 1-32 0v-32a16 16 0 0 0-32 0v32a16 16 0 1 1-32 0v-32a48 48 0 0 1 48-48z m144 0a48 48 0 0 1 48 48v32a16 16 0 1 1-32 0v-32a16 16 0 0 0-32 0v32a16 16 0 1 1-32 0v-32a48 48 0 0 1 48-48z m208 0a48 48 0 0 1 48 48v32a16 16 0 1 1-32 0v-32a16 16 0 0 0-32 0v32a16 16 0 1 1-32 0v-32a48 48 0 0 1 48-48z m-32-144a16 16 0 0 0-16 16v48h32v-48a16 16 0 0 0-16-16z m-592 0a16 16 0 0 0-16 16v48h32v-48a16 16 0 0 0-16-16z m144 0a16 16 0 0 0-16 16v48h32v-48a16 16 0 0 0-16-16z m144 0a16 16 0 0 0-16 16v48h32v-48a16 16 0 0 0-16-16zM224 560a16 16 0 0 0-16 16v48h32v-48a16 16 0 0 0-16-16z m144 0a16 16 0 0 0-16 16v48h32v-48a16 16 0 0 0-16-16z m3.888-144H141.44l-2.8 32h253.168l-19.408-31.04-0.512-0.96z" fill="#000000"/></svg>